<?xml version="1.0" encoding="UTF-8"?>
<svg
        width="47" height="83"
        version="1.1"
        viewBox="0 0 12.55 22"
        xmlns="http://www.w3.org/2000/svg"
      >
        <defs>
          <pattern id="pin-pattern" height="2" width="2.54" patternUnits="userSpaceOnUse">
            <circle cx="1.27" cy="1" r="0.5" fill="#aaa" />
          </pattern>
        </defs>
        <rect x="0" y="0" width="12.55" height="20.5" />
        
      <g transform="skewX(-8) translate(3.5, 2.4) scale(0.81)">
        <polygon points="2 0 8 0 9 1 8 2 2 2 1 1" fill="#444" />
        <polygon points="10 2 10 8 9 9 8 8 8 2 9 1" fill="#444" />
        <polygon points="10 10 10 16 9 17 8 16 8 10 9 9" fill="#444" />
        <polygon points="8 18 2 18 1 17 2 16 8 16 9 17" fill="#444" />
        <polygon points="0 16 0 10 1 9 2 10 2 16 1 17" fill="#444" />
        <polygon points="0 8 0 2 1 1 2 2 2 8 1 9" fill="#444" />
        <polygon points="2 8 8 8 9 9 8 10 2 10 1 9" fill="#444" />
      </g>
      <circle cx="10.9" cy="16" r="0.89" fill="#444" />
    <!-- -->
        <!-- -->
        
      <g fill="url(#pin-pattern)" transform="translate(-0.07499999999999929, 0)">
        <rect height="2" width="12.7" />
        <rect height="2" width="12.7" transform="translate(0, 18)" />
      </g>
    
      </svg>